<svg xmlns="http://www.w3.org/2000/svg" xmlns:xlink="http://www.w3.org/1999/xlink" width="776px" height="393px" version="1.1"><defs/><g transform="translate(0.5,0.5)"><path d="M 203 -104 L 583 -104 L 593 -94 L 593 496 L 213 496 L 203 486 L 203 -104 Z" fill="#ffffff" stroke="#000000" stroke-miterlimit="10" transform="rotate(90,398,196)" pointer-events="none"/><path d="M 213 496 L 213 -94 L 203 -104 M 213 -94 L 593 -94" fill="none" stroke="#000000" stroke-miterlimit="10" transform="rotate(90,398,196)" pointer-events="none"/><g fill="#000000" font-family="Helvetica" text-decoration="underline" font-size="12px"><text x="102" y="27">RoboRally: Ontwikkelaar(s)</text></g><ellipse cx="36" cy="231" rx="10" ry="10" fill="#ffffff" stroke="#000000" pointer-events="none"/><path d="M 36 241 L 36 274 M 36 248 L 16 248 M 36 248 L 56 248 M 36 274 L 16 301 M 36 274 L 56 301" fill="none" stroke="#000000" stroke-miterlimit="10" pointer-events="none"/><g fill="#000000" font-family="Helvetica" text-anchor="middle" font-size="12px"><text x="36" y="319">Ontwikkelaar</text></g><ellipse cx="179" cy="101" rx="65" ry="30" fill="#ffffff" stroke="#000000" pointer-events="none"/><g fill="#000000" font-family="Helvetica" text-anchor="middle" font-size="12px"><text x="179" y="98">Ontwikkelaar ontvangt</text><text x="179" y="112">klacht (glitch/bug)</text></g><ellipse cx="754" cy="71" rx="10" ry="10" fill="#ffffff" stroke="#000000" pointer-events="none"/><path d="M 754 81 L 754 114 M 754 88 L 734 88 M 754 88 L 774 88 M 754 114 L 734 141 M 754 114 L 774 141" fill="none" stroke="#000000" stroke-miterlimit="10" pointer-events="none"/><g fill="#000000" font-family="Helvetica" text-anchor="middle" font-size="12px"><text x="754" y="159">Speler</text></g><ellipse cx="398" cy="101" rx="65" ry="30" fill="#ffffff" stroke="#000000" pointer-events="none"/><g fill="#000000" font-family="Helvetica" text-anchor="middle" font-size="12px"><text x="398" y="98">Is het daadwerkelijk een</text><text x="398" y="112">glitch of bug?</text></g><path d="M 244 101 L 331 101" fill="none" stroke="#000000" stroke-miterlimit="10" stroke-dasharray="3 3" pointer-events="none"/><path d="M 319 108 L 332 101 L 319 95" fill="none" stroke="#000000" stroke-miterlimit="10" pointer-events="none"/><g fill="#000000" font-family="Helvetica" text-anchor="middle" font-size="11px"><rect fill="#ffffff" stroke="none" x="271" y="95" width="36" height="14" stroke-width="0"/><text x="289" y="105">include</text></g><ellipse cx="398" cy="211" rx="65" ry="30" fill="#ffffff" stroke="#000000" pointer-events="none"/><g fill="#000000" font-family="Helvetica" text-anchor="middle" font-size="12px"><text x="398" y="201">Heeft de glitch/bug</text><text x="398" y="215">direct impact op het</text><text x="398" y="229">spel?</text></g><ellipse cx="398" cy="321" rx="65" ry="30" fill="#ffffff" stroke="#000000" pointer-events="none"/><g fill="#000000" font-family="Helvetica" text-anchor="middle" font-size="12px"><text x="398" y="318">Ontwikkelaar gaat de</text><text x="398" y="332">fout verhelpen</text></g><path d="M 398 131 L 398 179" fill="none" stroke="#000000" stroke-miterlimit="10" stroke-dasharray="3 3" pointer-events="none"/><path d="M 392 167 L 398 180 L 405 167" fill="none" stroke="#000000" stroke-miterlimit="10" pointer-events="none"/><g fill="#000000" font-family="Helvetica" text-anchor="middle" font-size="11px"><rect fill="#ffffff" stroke="none" x="381" y="150" width="35" height="14" stroke-width="0"/><text x="398" y="160">extend</text></g><path d="M 398 241 L 398 289" fill="none" stroke="#000000" stroke-miterlimit="10" stroke-dasharray="3 3" pointer-events="none"/><path d="M 392 277 L 398 290 L 405 277" fill="none" stroke="#000000" stroke-miterlimit="10" pointer-events="none"/><g fill="#000000" font-family="Helvetica" text-anchor="middle" font-size="11px"><rect fill="#ffffff" stroke="none" x="381" y="260" width="35" height="14" stroke-width="0"/><text x="398" y="270">extend</text></g><ellipse cx="589" cy="101" rx="65" ry="30" fill="#ffffff" stroke="#000000" pointer-events="none"/><g fill="#000000" font-family="Helvetica" text-anchor="middle" font-size="12px"><text x="589" y="98">De glitch/bug is</text><text x="589" y="112">opgelost</text></g><path d="M 444 300 L 542 124" fill="none" stroke="#000000" stroke-miterlimit="10" stroke-dasharray="3 3" pointer-events="none"/><path d="M 542 138 L 542 123 L 530 131" fill="none" stroke="#000000" stroke-miterlimit="10" pointer-events="none"/><g fill="#000000" font-family="Helvetica" text-anchor="middle" font-size="11px"><rect fill="#ffffff" stroke="none" x="477" y="205" width="35" height="14" stroke-width="0"/><text x="494" y="214">extend</text></g><path d="M 754 101 L 660 101" fill="none" stroke="#000000" stroke-miterlimit="10" pointer-events="none"/><path d="M 655 101 L 662 98 L 660 101 L 662 105 Z" fill="#000000" stroke="#000000" stroke-miterlimit="10" pointer-events="none"/><path d="M 36 261 L 129 127" fill="none" stroke="#000000" stroke-miterlimit="10" pointer-events="none"/><path d="M 132 123 L 131 131 L 129 127 L 126 127 Z" fill="#000000" stroke="#000000" stroke-miterlimit="10" pointer-events="none"/></g></svg>