<svg xmlns="http://www.w3.org/2000/svg" xmlns:xlink="http://www.w3.org/1999/xlink" width="786px" height="634px" version="1.1"><defs/><g transform="translate(0.5,0.5)"><path d="M 76 16 L 696 16 L 706 26 L 706 616 L 86 616 L 76 606 L 76 16 Z" fill="#ffffff" stroke="#000000" stroke-miterlimit="10" transform="rotate(90,391,316)" pointer-events="none"/><path d="M 86 616 L 86 26 L 76 16 M 86 26 L 706 26" fill="none" stroke="#000000" stroke-miterlimit="10" transform="rotate(90,391,316)" pointer-events="none"/><g fill="#000000" font-family="Helvetica" text-decoration="underline" font-size="12px"><text x="95" y="27">RoboRally: Beheerder(s)</text></g><ellipse cx="29" cy="231" rx="10" ry="10" fill="#ffffff" stroke="#000000" pointer-events="none"/><path d="M 29 241 L 29 274 M 29 248 L 9 248 M 29 248 L 49 248 M 29 274 L 9 301 M 29 274 L 49 301" fill="none" stroke="#000000" stroke-miterlimit="10" pointer-events="none"/><g fill="#000000" font-family="Helvetica" text-anchor="middle" font-size="12px"><text x="29" y="319">Beheerder</text></g><ellipse cx="172" cy="101" rx="65" ry="30" fill="#ffffff" stroke="#000000" pointer-events="none"/><g fill="#000000" font-family="Helvetica" text-anchor="middle" font-size="12px"><text x="172" y="98">Beheerder ontvangt</text><text x="172" y="112">speler rapportage</text></g><ellipse cx="747" cy="71" rx="10" ry="10" fill="#ffffff" stroke="#000000" pointer-events="none"/><path d="M 747 81 L 747 114 M 747 88 L 727 88 M 747 88 L 767 88 M 747 114 L 727 141 M 747 114 L 767 141" fill="none" stroke="#000000" stroke-miterlimit="10" pointer-events="none"/><g fill="#000000" font-family="Helvetica" text-anchor="middle" font-size="12px"><text x="747" y="159">Speler</text></g><ellipse cx="391" cy="101" rx="65" ry="30" fill="#ffffff" stroke="#000000" pointer-events="none"/><g fill="#000000" font-family="Helvetica" text-anchor="middle" font-size="12px"><text x="391" y="98">Is er een geldige</text><text x="391" y="112">reden?</text></g><path d="M 237 101 L 324 101" fill="none" stroke="#000000" stroke-miterlimit="10" stroke-dasharray="3 3" pointer-events="none"/><path d="M 312 107 L 325 101 L 312 94" fill="none" stroke="#000000" stroke-miterlimit="10" pointer-events="none"/><g fill="#000000" font-family="Helvetica" text-anchor="middle" font-size="11px"><rect fill="#ffffff" stroke="none" x="264" y="95" width="36" height="14" stroke-width="0"/><text x="281" y="104">include</text></g><ellipse cx="391" cy="211" rx="65" ry="30" fill="#ffffff" stroke="#000000" pointer-events="none"/><g fill="#000000" font-family="Helvetica" text-anchor="middle" font-size="12px"><text x="391" y="201">Is de overtreding</text><text x="391" y="215">erg genoeg voor</text><text x="391" y="229">blokkering?</text></g><ellipse cx="391" cy="321" rx="65" ry="30" fill="#ffffff" stroke="#000000" pointer-events="none"/><g fill="#000000" font-family="Helvetica" text-anchor="middle" font-size="12px"><text x="391" y="311">Is de overtreding</text><text x="391" y="325">erg genoeg voor</text><text x="391" y="339">blokkering?</text></g><path d="M 391 131 L 391 179" fill="none" stroke="#000000" stroke-miterlimit="10" stroke-dasharray="3 3" pointer-events="none"/><path d="M 384 167 L 391 180 L 397 167" fill="none" stroke="#000000" stroke-miterlimit="10" pointer-events="none"/><g fill="#000000" font-family="Helvetica" text-anchor="middle" font-size="11px"><rect fill="#ffffff" stroke="none" x="374" y="150" width="35" height="14" stroke-width="0"/><text x="391" y="159">extend</text></g><path d="M 391 241 L 391 289" fill="none" stroke="#000000" stroke-miterlimit="10" stroke-dasharray="3 3" pointer-events="none"/><path d="M 384 277 L 391 290 L 397 277" fill="none" stroke="#000000" stroke-miterlimit="10" pointer-events="none"/><g fill="#000000" font-family="Helvetica" text-anchor="middle" font-size="11px"><rect fill="#ffffff" stroke="none" x="374" y="260" width="35" height="14" stroke-width="0"/><text x="391" y="269">extend</text></g><ellipse cx="582" cy="101" rx="65" ry="30" fill="#ffffff" stroke="#000000" pointer-events="none"/><g fill="#000000" font-family="Helvetica" text-anchor="middle" font-size="12px"><text x="582" y="98">Speler wordt</text><text x="582" y="112">geblokkeerd</text></g><path d="M 437 300 L 535 124" fill="none" stroke="#000000" stroke-miterlimit="10" stroke-dasharray="3 3" pointer-events="none"/><path d="M 535 138 L 535 123 L 523 131" fill="none" stroke="#000000" stroke-miterlimit="10" pointer-events="none"/><g fill="#000000" font-family="Helvetica" text-anchor="middle" font-size="11px"><rect fill="#ffffff" stroke="none" x="470" y="205" width="35" height="14" stroke-width="0"/><text x="487" y="214">extend</text></g><path d="M 747 101 L 653 101" fill="none" stroke="#000000" stroke-miterlimit="10" pointer-events="none"/><path d="M 648 101 L 655 97 L 653 101 L 655 104 Z" fill="#000000" stroke="#000000" stroke-miterlimit="10" pointer-events="none"/><path d="M 29 261 L 122 127" fill="none" stroke="#000000" stroke-miterlimit="10" pointer-events="none"/><path d="M 125 123 L 124 131 L 122 127 L 119 127 Z" fill="#000000" stroke="#000000" stroke-miterlimit="10" pointer-events="none"/><ellipse cx="172" cy="451" rx="65" ry="30" fill="#ffffff" stroke="#000000" pointer-events="none"/><g fill="#000000" font-family="Helvetica" text-anchor="middle" font-size="12px"><text x="172" y="448">Beheerder ontvangt</text><text x="172" y="462">glitch/bug klacht</text></g><path d="M 29 261 L 123 424" fill="none" stroke="#000000" stroke-miterlimit="10" pointer-events="none"/><path d="M 125 429 L 119 424 L 123 424 L 125 421 Z" fill="#000000" stroke="#000000" stroke-miterlimit="10" pointer-events="none"/><ellipse cx="391" cy="451" rx="65" ry="30" fill="#ffffff" stroke="#000000" pointer-events="none"/><g fill="#000000" font-family="Helvetica" text-anchor="middle" font-size="12px"><text x="391" y="448">Is er een duidelijke</text><text x="391" y="462">beschrijving?</text></g><path d="M 237 451 L 324 451" fill="none" stroke="#000000" stroke-miterlimit="10" stroke-dasharray="3 3" pointer-events="none"/><path d="M 312 457 L 325 451 L 312 444" fill="none" stroke="#000000" stroke-miterlimit="10" pointer-events="none"/><g fill="#000000" font-family="Helvetica" text-anchor="middle" font-size="11px"><rect fill="#ffffff" stroke="none" x="264" y="445" width="36" height="14" stroke-width="0"/><text x="281" y="454">include</text></g><ellipse cx="391" cy="561" rx="65" ry="30" fill="#ffffff" stroke="#000000" pointer-events="none"/><g fill="#000000" font-family="Helvetica" text-anchor="middle" font-size="12px"><text x="391" y="558">Gaat het werkelijk</text><text x="391" y="572">om een glitch of bug?</text></g><path d="M 391 481 L 391 529" fill="none" stroke="#000000" stroke-miterlimit="10" stroke-dasharray="3 3" pointer-events="none"/><path d="M 384 517 L 391 530 L 397 517" fill="none" stroke="#000000" stroke-miterlimit="10" pointer-events="none"/><g fill="#000000" font-family="Helvetica" text-anchor="middle" font-size="11px"><rect fill="#ffffff" stroke="none" x="374" y="500" width="35" height="14" stroke-width="0"/><text x="391" y="509">extend</text></g><ellipse cx="582" cy="451" rx="65" ry="30" fill="#ffffff" stroke="#000000" pointer-events="none"/><g fill="#000000" font-family="Helvetica" text-anchor="middle" font-size="12px"><text x="582" y="448">Klacht doorsturen naar</text><text x="582" y="462">de ontwikkelaars</text></g><path d="M 437 540 L 534 473" fill="none" stroke="#000000" stroke-miterlimit="10" stroke-dasharray="3 3" pointer-events="none"/><path d="M 528 485 L 535 473 L 521 475" fill="none" stroke="#000000" stroke-miterlimit="10" pointer-events="none"/><g fill="#000000" font-family="Helvetica" text-anchor="middle" font-size="11px"><rect fill="#ffffff" stroke="none" x="470" y="500" width="35" height="14" stroke-width="0"/><text x="487" y="509">extend</text></g><ellipse cx="747" cy="421" rx="10" ry="10" fill="#ffffff" stroke="#000000" pointer-events="none"/><path d="M 747 431 L 747 464 M 747 438 L 727 438 M 747 438 L 767 438 M 747 464 L 727 491 M 747 464 L 767 491" fill="none" stroke="#000000" stroke-miterlimit="10" pointer-events="none"/><g fill="#000000" font-family="Helvetica" text-anchor="middle" font-size="12px"><text x="747" y="509">Ontwikkelaars</text></g><path d="M 747 451 L 653 451" fill="none" stroke="#000000" stroke-miterlimit="10" pointer-events="none"/><path d="M 648 451 L 655 447 L 653 451 L 655 454 Z" fill="#000000" stroke="#000000" stroke-miterlimit="10" pointer-events="none"/></g></svg>