<svg xmlns="http://www.w3.org/2000/svg" xmlns:xlink="http://www.w3.org/1999/xlink" width="813px" height="723px" version="1.1"><defs/><g transform="translate(0.5,0.5)"><path d="M 46 51 L 756 51 L 766 61 L 766 671 L 56 671 L 46 661 L 46 51 Z" fill="#ffffff" stroke="#000000" stroke-miterlimit="10" transform="rotate(90,406,361)" pointer-events="none"/><path d="M 56 671 L 56 61 L 46 51 M 56 61 L 766 61" fill="none" stroke="#000000" stroke-miterlimit="10" transform="rotate(90,406,361)" pointer-events="none"/><g fill="#000000" font-family="Helvetica" text-decoration="underline" font-size="12px"><text x="100" y="27">RoboRally: Toeschouwers</text></g><ellipse cx="40" cy="261" rx="10" ry="10" fill="#ffffff" stroke="#000000" pointer-events="none"/><path d="M 40 271 L 40 304 M 40 278 L 20 278 M 40 278 L 60 278 M 40 304 L 20 331 M 40 304 L 60 331" fill="none" stroke="#000000" stroke-miterlimit="10" pointer-events="none"/><g fill="#000000" font-family="Helvetica" text-anchor="middle" font-size="12px"><text x="40" y="349">Toeschouwers</text></g><ellipse cx="770" cy="51" rx="10" ry="10" fill="#ffffff" stroke="#000000" pointer-events="none"/><path d="M 770 61 L 770 94 M 770 68 L 750 68 M 770 68 L 790 68 M 770 94 L 750 121 M 770 94 L 790 121" fill="none" stroke="#000000" stroke-miterlimit="10" pointer-events="none"/><g fill="#000000" font-family="Helvetica" text-anchor="middle" font-size="12px"><text x="770" y="139">Spelers</text></g><ellipse cx="395" cy="69" rx="65" ry="37.5" fill="#ffffff" stroke="#000000" pointer-events="none"/><g fill="#000000" font-family="Helvetica" text-anchor="middle" font-size="12px"><text x="395" y="59">Maximaal twee spelers</text><text x="395" y="73">mogen tegenlijkertijd</text><text x="395" y="87">toeschouwen</text></g><ellipse cx="175" cy="89" rx="65" ry="27.5" fill="#ffffff" stroke="#000000" pointer-events="none"/><g fill="#000000" font-family="Helvetica" text-anchor="middle" font-size="12px"><text x="175" y="86">Toeschouwer wilt een</text><text x="175" y="100">actief spel bekijken</text></g><path d="M 240 89 L 328 69" fill="none" stroke="#000000" stroke-miterlimit="10" stroke-dasharray="3 3" pointer-events="none"/><path d="M 318 78 L 329 69 L 315 65" fill="none" stroke="#000000" stroke-miterlimit="10" pointer-events="none"/><g fill="#000000" font-family="Helvetica" text-anchor="middle" font-size="11px"><rect fill="#ffffff" stroke="none" x="267" y="73" width="37" height="14" stroke-width="0"/><text x="285" y="82">include</text></g><ellipse cx="395" cy="181" rx="65" ry="30" fill="#ffffff" stroke="#000000" pointer-events="none"/><g fill="#000000" font-family="Helvetica" text-anchor="middle" font-size="12px"><text x="395" y="171">Er zijn geen plekken</text><text x="395" y="185">voor toeschouwers</text><text x="395" y="199">beschikbaar</text></g><path d="M 395 106 L 395 149" fill="none" stroke="#000000" stroke-miterlimit="10" stroke-dasharray="3 3" pointer-events="none"/><path d="M 389 137 L 395 150 L 402 137" fill="none" stroke="#000000" stroke-miterlimit="10" pointer-events="none"/><g fill="#000000" font-family="Helvetica" text-anchor="middle" font-size="11px"><rect fill="#ffffff" stroke="none" x="378" y="123" width="35" height="14" stroke-width="0"/><text x="395" y="132">extend</text></g><ellipse cx="635" cy="178" rx="65" ry="25" fill="#ffffff" stroke="#000000" pointer-events="none"/><g fill="#000000" font-family="Helvetica" text-anchor="middle" font-size="12px"><text x="635" y="175">Spelers zijn actief aan</text><text x="635" y="189">een spel</text></g><ellipse cx="770" cy="181" rx="10" ry="10" fill="#ffffff" stroke="#000000" pointer-events="none"/><path d="M 770 191 L 770 224 M 770 198 L 750 198 M 770 198 L 790 198 M 770 224 L 750 251 M 770 224 L 790 251" fill="none" stroke="#000000" stroke-miterlimit="10" pointer-events="none"/><g fill="#000000" font-family="Helvetica" text-anchor="middle" font-size="12px"><text x="770" y="269">Actief spel</text></g><ellipse cx="635" cy="81" rx="65" ry="25" fill="#ffffff" stroke="#000000" pointer-events="none"/><g fill="#000000" font-family="Helvetica" text-anchor="middle" font-size="12px"><text x="635" y="78">Spelers zoeken een</text><text x="635" y="92">lobby</text></g><path d="M 770 81 L 706 81" fill="none" stroke="#000000" stroke-miterlimit="10" pointer-events="none"/><path d="M 701 81 L 708 78 L 706 81 L 708 85 Z" fill="#000000" stroke="#000000" stroke-miterlimit="10" pointer-events="none"/><path d="M 770 211 L 706 181" fill="none" stroke="#000000" stroke-miterlimit="10" pointer-events="none"/><path d="M 701 178 L 709 178 L 706 181 L 706 185 Z" fill="#000000" stroke="#000000" stroke-miterlimit="10" pointer-events="none"/><path d="M 635 106 L 635 151" fill="none" stroke="#000000" stroke-miterlimit="10" stroke-dasharray="3 3" pointer-events="none"/><path d="M 629 139 L 635 152 L 642 139" fill="none" stroke="#000000" stroke-miterlimit="10" pointer-events="none"/><g fill="#000000" font-family="Helvetica" text-anchor="middle" font-size="11px"><rect fill="#ffffff" stroke="none" x="618" y="124" width="35" height="14" stroke-width="0"/><text x="635" y="133">extend</text></g><ellipse cx="395" cy="261" rx="65" ry="30" fill="#ffffff" stroke="#000000" pointer-events="none"/><g fill="#000000" font-family="Helvetica" text-anchor="middle" font-size="12px"><text x="395" y="251">Er zijn minimaal</text><text x="395" y="265">2 en maximaal 8</text><text x="395" y="279">deelnemers</text></g><path d="M 589 99 L 443 238" fill="none" stroke="#000000" stroke-miterlimit="10" stroke-dasharray="3 3" pointer-events="none"/><path d="M 447 225 L 442 239 L 456 235" fill="none" stroke="#000000" stroke-miterlimit="10" pointer-events="none"/><g fill="#000000" font-family="Helvetica" text-anchor="middle" font-size="11px"><rect fill="#ffffff" stroke="none" x="497" y="163" width="37" height="14" stroke-width="0"/><text x="515" y="173">include</text></g><ellipse cx="175" cy="164" rx="65" ry="32.5" fill="#ffffff" stroke="#000000" pointer-events="none"/><g fill="#000000" font-family="Helvetica" text-anchor="middle" font-size="12px"><text x="175" y="154">Toeschouwer wisselt</text><text x="175" y="168">tussen actieve</text><text x="175" y="182">spellen</text></g><ellipse cx="395" cy="342" rx="65" ry="35" fill="#ffffff" stroke="#000000" pointer-events="none"/><g fill="#000000" font-family="Helvetica" text-anchor="middle" font-size="12px"><text x="395" y="332">Toeschouwer bekijkt</text><text x="395" y="346">minimaal twee</text><text x="395" y="360">actieve spellen</text></g><path d="M 221 186 L 339 329" fill="none" stroke="#000000" stroke-miterlimit="10" stroke-dasharray="3 3" pointer-events="none"/><path d="M 326 324 L 339 329 L 336 315" fill="none" stroke="#000000" stroke-miterlimit="10" pointer-events="none"/><g fill="#000000" font-family="Helvetica" text-anchor="middle" font-size="11px"><rect fill="#ffffff" stroke="none" x="263" y="252" width="37" height="14" stroke-width="0"/><text x="281" y="262">include</text></g><ellipse cx="175" cy="256" rx="65" ry="25" fill="#ffffff" stroke="#000000" pointer-events="none"/><g fill="#000000" font-family="Helvetica" text-anchor="middle" font-size="12px"><text x="175" y="253">Toeschouwer schakelt</text><text x="175" y="267">dual view in</text></g><path d="M 221 274 L 328 341" fill="none" stroke="#000000" stroke-miterlimit="10" stroke-dasharray="3 3" pointer-events="none"/><path d="M 315 340 L 329 341 L 321 329" fill="none" stroke="#000000" stroke-miterlimit="10" pointer-events="none"/><g fill="#000000" font-family="Helvetica" text-anchor="middle" font-size="11px"><rect fill="#ffffff" stroke="none" x="257" y="302" width="37" height="14" stroke-width="0"/><text x="275" y="311">include</text></g><ellipse cx="175" cy="336" rx="65" ry="25" fill="#ffffff" stroke="#000000" pointer-events="none"/><g fill="#000000" font-family="Helvetica" text-anchor="middle" font-size="12px"><text x="175" y="326">Toeschouwer wilt</text><text x="175" y="340">herhaling online</text><text x="175" y="354">bekijken</text></g><ellipse cx="395" cy="416" rx="65" ry="25" fill="#ffffff" stroke="#000000" pointer-events="none"/><g fill="#000000" font-family="Helvetica" text-anchor="middle" font-size="12px"><text x="395" y="413">Gespeelde spel is niet</text><text x="395" y="427">ouder dan twee dagen</text></g><path d="M 221 354 L 346 398" fill="none" stroke="#000000" stroke-miterlimit="10" stroke-dasharray="3 3" pointer-events="none"/><path d="M 332 400 L 347 398 L 337 388" fill="none" stroke="#000000" stroke-miterlimit="10" pointer-events="none"/><g fill="#000000" font-family="Helvetica" text-anchor="middle" font-size="11px"><rect fill="#ffffff" stroke="none" x="266" y="370" width="37" height="14" stroke-width="0"/><text x="284" y="380">include</text></g><ellipse cx="395" cy="506" rx="65" ry="25" fill="#ffffff" stroke="#000000" pointer-events="none"/><g fill="#000000" font-family="Helvetica" text-anchor="middle" font-size="12px"><text x="395" y="503">Toeschouwer wilt</text><text x="395" y="517">herhaling downloaden</text></g><path d="M 395 481 L 395 443" fill="none" stroke="#000000" stroke-miterlimit="10" stroke-dasharray="3 3" pointer-events="none"/><path d="M 402 455 L 395 442 L 389 455" fill="none" stroke="#000000" stroke-miterlimit="10" pointer-events="none"/><g fill="#000000" font-family="Helvetica" text-anchor="middle" font-size="11px"><rect fill="#ffffff" stroke="none" x="377" y="455" width="37" height="14" stroke-width="0"/><text x="395" y="465">include</text></g><ellipse cx="170" cy="416" rx="65" ry="25" fill="#ffffff" stroke="#000000" pointer-events="none"/><g fill="#000000" font-family="Helvetica" text-anchor="middle" font-size="12px"><text x="170" y="406">Toeschouwer wilt</text><text x="170" y="420">herhaling offline</text><text x="170" y="434">bekijken</text></g><path d="M 216 434 L 347 487" fill="none" stroke="#000000" stroke-miterlimit="10" stroke-dasharray="3 3" pointer-events="none"/><path d="M 334 489 L 348 488 L 338 477" fill="none" stroke="#000000" stroke-miterlimit="10" pointer-events="none"/><g fill="#000000" font-family="Helvetica" text-anchor="middle" font-size="11px"><rect fill="#ffffff" stroke="none" x="266" y="455" width="35" height="14" stroke-width="0"/><text x="283" y="465">extend</text></g><ellipse cx="770" cy="306" rx="10" ry="10" fill="#ffffff" stroke="#000000" pointer-events="none"/><path d="M 770 316 L 770 349 M 770 323 L 750 323 M 770 323 L 790 323 M 770 349 L 750 376 M 770 349 L 790 376" fill="none" stroke="#000000" stroke-miterlimit="10" pointer-events="none"/><g fill="#000000" font-family="Helvetica" text-anchor="middle" font-size="12px"><text x="770" y="394">Centrale server</text></g><path d="M 770 336 L 466 414" fill="none" stroke="#000000" stroke-miterlimit="10" pointer-events="none"/><path d="M 461 416 L 467 411 L 466 414 L 469 417 Z" fill="#000000" stroke="#000000" stroke-miterlimit="10" pointer-events="none"/><path d="M 770 211 L 466 340" fill="none" stroke="#000000" stroke-miterlimit="10" pointer-events="none"/><path d="M 461 342 L 466 336 L 466 340 L 469 342 Z" fill="#000000" stroke="#000000" stroke-miterlimit="10" pointer-events="none"/><path d="M 770 211 L 466 260" fill="none" stroke="#000000" stroke-miterlimit="10" pointer-events="none"/><path d="M 461 261 L 467 256 L 466 260 L 469 263 Z" fill="#000000" stroke="#000000" stroke-miterlimit="10" pointer-events="none"/><ellipse cx="170" cy="586" rx="65" ry="25" fill="#ffffff" stroke="#000000" pointer-events="none"/><g fill="#000000" font-family="Helvetica" text-anchor="middle" font-size="12px"><text x="170" y="583">Toeschouwer wilt</text><text x="170" y="597">chatten</text></g><ellipse cx="395" cy="586" rx="65" ry="25" fill="#ffffff" stroke="#000000" pointer-events="none"/><g fill="#000000" font-family="Helvetica" text-anchor="middle" font-size="12px"><text x="395" y="583">Chat persoon is</text><text x="395" y="597">ook een toeschouwer</text></g><path d="M 235 586 L 328 586" fill="none" stroke="#000000" stroke-miterlimit="10" stroke-dasharray="3 3" pointer-events="none"/><path d="M 316 593 L 329 586 L 316 580" fill="none" stroke="#000000" stroke-miterlimit="10" pointer-events="none"/><g fill="#000000" font-family="Helvetica" text-anchor="middle" font-size="11px"><rect fill="#ffffff" stroke="none" x="265" y="580" width="37" height="14" stroke-width="0"/><text x="283" y="590">include</text></g><ellipse cx="395" cy="661" rx="65" ry="30" fill="#ffffff" stroke="#000000" pointer-events="none"/><g fill="#000000" font-family="Helvetica" text-anchor="middle" font-size="12px"><text x="395" y="651">Chat persoon niet</text><text x="395" y="665">(meer) actief in</text><text x="395" y="679">het spel</text></g><path d="M 216 604 L 347 639" fill="none" stroke="#000000" stroke-miterlimit="10" stroke-dasharray="3 3" pointer-events="none"/><path d="M 334 642 L 348 639 L 337 630" fill="none" stroke="#000000" stroke-miterlimit="10" pointer-events="none"/><g fill="#000000" font-family="Helvetica" text-anchor="middle" font-size="11px"><rect fill="#ffffff" stroke="none" x="265" y="616" width="37" height="14" stroke-width="0"/><text x="283" y="625">include</text></g><path d="M 770 211 L 464 656" fill="none" stroke="#000000" stroke-miterlimit="10" pointer-events="none"/><path d="M 461 660 L 462 652 L 464 656 L 467 656 Z" fill="#000000" stroke="#000000" stroke-miterlimit="10" pointer-events="none"/><path d="M 40 291 L 126 113" fill="none" stroke="#000000" stroke-miterlimit="10" pointer-events="none"/><path d="M 128 109 L 128 117 L 126 113 L 122 114 Z" fill="#000000" stroke="#000000" stroke-miterlimit="10" pointer-events="none"/><path d="M 40 291 L 125 191" fill="none" stroke="#000000" stroke-miterlimit="10" pointer-events="none"/><path d="M 128 187 L 126 195 L 125 191 L 121 190 Z" fill="#000000" stroke="#000000" stroke-miterlimit="10" pointer-events="none"/><path d="M 40 291 L 104 259" fill="none" stroke="#000000" stroke-miterlimit="10" pointer-events="none"/><path d="M 109 256 L 104 263 L 104 259 L 101 256 Z" fill="#000000" stroke="#000000" stroke-miterlimit="10" pointer-events="none"/><path d="M 40 291 L 105 333" fill="none" stroke="#000000" stroke-miterlimit="10" pointer-events="none"/><path d="M 109 335 L 101 335 L 105 333 L 105 329 Z" fill="#000000" stroke="#000000" stroke-miterlimit="10" pointer-events="none"/><path d="M 40 291 L 120 393" fill="none" stroke="#000000" stroke-miterlimit="10" pointer-events="none"/><path d="M 123 397 L 116 394 L 120 393 L 122 390 Z" fill="#000000" stroke="#000000" stroke-miterlimit="10" pointer-events="none"/><path d="M 40 291 L 122 562" fill="none" stroke="#000000" stroke-miterlimit="10" pointer-events="none"/><path d="M 124 567 L 118 562 L 122 562 L 125 560 Z" fill="#000000" stroke="#000000" stroke-miterlimit="10" pointer-events="none"/></g></svg>